# xmcd
#
# Track frame offsets:
#	182
#	14875
#	28647
#	42232
#	56002
#	70832
#	86505
#	99880
#	112737
#	127790
#	141000
#	154005
#	166702
#	179017
#	191492
#	205462
#	218940
#	231857
#	243592
#	256327
#
# Disc length: 3587 seconds
#
# Revision: 0
# Processed by: cddbd v1.5.1PL2 Copyright (c) Steve Scherf et al.
# Submitted via: EasyCDDAExtractor 8.2.3.1
#
DISCID=120e0114
DTITLE=Buddy Moss - 1930-1941
DYEAR=1930
DGENRE=Blues
TTITLE0=i'm on my down home
TTITLE1=diddle-da-diddle
TTITLE2=she looks so good
TTITLE3=she's comming back some cold rainy day
TTITLE4=bye bye mama
TTITLE5=cold country blues
TTITLE6=jealous hearted man
TTITLE7=joker man
TTITLE8=stop hangin arround
TTITLE9=red river blues
TTITLE10=tampa strut
TTITLE11=who stole de lock
TTITLE12=dough rolling papa
TTITLE13=some lonesome day
TTITLE14=worrysome woman
TTITLE15=mistreated boy
TTITLE16=you need a women
TTITLE17=joy rag
TTITLE18=i'm sitting here tonigth
TTITLE19=unfinished business
EXTD=
EXTT0=
EXTT1=
EXTT2=
EXTT3=
EXTT4=
EXTT5=
EXTT6=
EXTT7=
EXTT8=
EXTT9=
EXTT10=
EXTT11=
EXTT12=
EXTT13=
EXTT14=
EXTT15=
EXTT16=
EXTT17=
EXTT18=
EXTT19=
PLAYORDER=
